<svg width="592" height="148" viewBox="0 0 592 148" fill="none" xmlns="http://www.w3.org/2000/svg">
<ellipse cx="49.1039" cy="33.2736" rx="3.2736" ry="3.2736" fill="#77FF77"/>
<ellipse cx="58.2701" cy="33.2736" rx="3.2736" ry="3.2736" fill="#77FF77"/>
<ellipse cx="67.4361" cy="33.2736" rx="3.2736" ry="3.2736" fill="#77FF77"/>
<ellipse cx="49.1039" cy="33.2736" rx="3.2736" ry="3.2736" fill="#77FF77"/>
<ellipse cx="49.1039" cy="42.4396" rx="3.2736" ry="3.2736" fill="#77FF77"/>
<ellipse cx="58.2701" cy="42.4396" rx="3.2736" ry="3.2736" fill="#77FF77"/>
<ellipse cx="67.4361" cy="42.4396" rx="3.2736" ry="3.2736" fill="#77FF77"/>
<ellipse cx="76.6021" cy="42.4396" rx="3.2736" ry="3.2736" fill="#77FF77"/>
<ellipse cx="85.7683" cy="42.4396" rx="3.2736" ry="3.2736" fill="#77FF77"/>
<ellipse cx="39.9379" cy="42.4396" rx="3.2736" ry="3.2736" fill="#77FF77"/>
<ellipse cx="3.2736" cy="3.2736" rx="3.2736" ry="3.2736" transform="matrix(1 0 0 -1 54.9965 109.876)" fill="#77FF77"/>
<ellipse cx="3.2736" cy="3.2736" rx="3.2736" ry="3.2736" transform="matrix(1 0 0 -1 64.1625 109.876)" fill="#77FF77"/>
<ellipse cx="3.2736" cy="3.2736" rx="3.2736" ry="3.2736" transform="matrix(1 0 0 -1 45.8303 109.876)" fill="#77FF77"/>
<ellipse cx="3.2736" cy="3.2736" rx="3.2736" ry="3.2736" transform="matrix(1 0 0 -1 45.8303 100.71)" fill="#77FF77"/>
<ellipse cx="3.2736" cy="3.2736" rx="3.2736" ry="3.2736" transform="matrix(1 0 0 -1 54.9965 100.71)" fill="#77FF77"/>
<ellipse cx="3.2736" cy="3.2736" rx="3.2736" ry="3.2736" transform="matrix(1 0 0 -1 64.1625 100.71)" fill="#77FF77"/>
<ellipse cx="3.2736" cy="3.2736" rx="3.2736" ry="3.2736" transform="matrix(1 0 0 -1 73.3286 100.71)" fill="#77FF77"/>
<ellipse cx="3.2736" cy="3.2736" rx="3.2736" ry="3.2736" transform="matrix(1 0 0 -1 36.6643 100.71)" fill="#77FF77"/>
<ellipse cx="30.7718" cy="42.4396" rx="3.2736" ry="3.2736" fill="#77FF77"/>
<ellipse cx="30.7718" cy="51.6057" rx="3.2736" ry="3.2736" fill="#77FF77"/>
<ellipse cx="39.9379" cy="51.6057" rx="3.2736" ry="3.2736" fill="#77FF77"/>
<ellipse cx="39.9379" cy="88.27" rx="3.2736" ry="3.2736" fill="#77FF77"/>
<ellipse cx="76.6021" cy="88.27" rx="3.2736" ry="3.2736" fill="#77FF77"/>
<ellipse cx="30.7718" cy="60.7718" rx="3.2736" ry="3.2736" fill="#77FF77"/>
<ellipse cx="30.7718" cy="69.9379" rx="3.2736" ry="3.2736" fill="#77FF77"/>
<ellipse cx="30.7718" cy="79.104" rx="3.2736" ry="3.2736" fill="#77FF77"/>
<ellipse cx="30.7718" cy="97.436" rx="3.2736" ry="3.2736" fill="#77FF77"/>
<ellipse cx="21.6057" cy="88.27" rx="3.2736" ry="3.2736" fill="#77FF77"/>
<ellipse cx="21.6057" cy="79.104" rx="3.2736" ry="3.2736" fill="#77FF77"/>
<ellipse cx="21.6057" cy="69.9379" rx="3.2736" ry="3.2736" fill="#77FF77"/>
<ellipse cx="21.6057" cy="60.7718" rx="3.2736" ry="3.2736" fill="#77FF77"/>
<ellipse cx="12.4397" cy="60.7718" rx="3.2736" ry="3.2736" fill="#77FF77"/>
<ellipse cx="12.4397" cy="69.9379" rx="3.2736" ry="3.2736" fill="#77FF77"/>
<ellipse cx="3.2736" cy="69.9379" rx="3.2736" ry="3.2736" fill="#77FF77"/>
<ellipse cx="12.4397" cy="79.104" rx="3.2736" ry="3.2736" fill="#77FF77"/>
<ellipse cx="21.6057" cy="51.6057" rx="3.2736" ry="3.2736" fill="#77FF77"/>
<ellipse cx="30.7718" cy="88.27" rx="3.2736" ry="3.2736" fill="#77FF77"/>
<ellipse cx="3.2736" cy="3.2736" rx="3.2736" ry="3.2736" transform="matrix(-1 0 0 1 89.0417 48.3321)" fill="#77FF77"/>
<ellipse cx="3.2736" cy="3.2736" rx="3.2736" ry="3.2736" transform="matrix(-1 0 0 1 79.8757 48.3321)" fill="#77FF77"/>
<ellipse cx="3.2736" cy="3.2736" rx="3.2736" ry="3.2736" transform="matrix(-1 0 0 1 89.0417 57.4982)" fill="#77FF77"/>
<ellipse cx="3.2736" cy="3.2736" rx="3.2736" ry="3.2736" transform="matrix(-1 0 0 1 89.0417 66.6643)" fill="#77FF77"/>
<ellipse cx="3.2736" cy="3.2736" rx="3.2736" ry="3.2736" transform="matrix(-1 0 0 1 89.0417 75.8304)" fill="#77FF77"/>
<ellipse cx="3.2736" cy="3.2736" rx="3.2736" ry="3.2736" transform="matrix(-1 0 0 1 89.0417 94.1624)" fill="#77FF77"/>
<ellipse cx="3.2736" cy="3.2736" rx="3.2736" ry="3.2736" transform="matrix(-1 0 0 1 98.2079 84.9964)" fill="#77FF77"/>
<ellipse cx="3.2736" cy="3.2736" rx="3.2736" ry="3.2736" transform="matrix(-1 0 0 1 98.2079 75.8304)" fill="#77FF77"/>
<ellipse cx="3.2736" cy="3.2736" rx="3.2736" ry="3.2736" transform="matrix(-1 0 0 1 98.2079 66.6643)" fill="#77FF77"/>
<ellipse cx="3.2736" cy="3.2736" rx="3.2736" ry="3.2736" transform="matrix(-1 0 0 1 98.2079 57.4982)" fill="#77FF77"/>
<ellipse cx="3.2736" cy="3.2736" rx="3.2736" ry="3.2736" transform="matrix(-1 0 0 1 107.374 57.4982)" fill="#77FF77"/>
<ellipse cx="3.2736" cy="3.2736" rx="3.2736" ry="3.2736" transform="matrix(-1 0 0 1 107.374 66.6643)" fill="#77FF77"/>
<ellipse cx="3.2736" cy="3.2736" rx="3.2736" ry="3.2736" transform="matrix(-1 0 0 1 116.54 66.6643)" fill="#77FF77"/>
<ellipse cx="3.2736" cy="3.2736" rx="3.2736" ry="3.2736" transform="matrix(-1 0 0 1 107.374 75.8304)" fill="#77FF77"/>
<ellipse cx="3.2736" cy="3.2736" rx="3.2736" ry="3.2736" transform="matrix(-1 0 0 1 98.2079 48.3321)" fill="#77FF77"/>
<ellipse cx="3.2736" cy="3.2736" rx="3.2736" ry="3.2736" transform="matrix(-1 0 0 1 89.0417 84.9964)" fill="#77FF77"/>
<ellipse cx="3.2736" cy="3.2736" rx="3.2736" ry="3.2736" transform="matrix(1 0 0 -1 54.9965 73.2115)" fill="#77FF77"/>
<ellipse cx="3.2736" cy="3.2736" rx="3.2736" ry="3.2736" transform="matrix(1 0 0 -1 54.9965 64.0454)" fill="#77FF77"/>
<ellipse cx="3.2736" cy="3.2736" rx="3.2736" ry="3.2736" transform="matrix(1 0 0 -1 45.8303 73.2115)" fill="#77FF77"/>
<ellipse cx="3.2736" cy="3.2736" rx="3.2736" ry="3.2736" transform="matrix(1 0 0 -1 64.1625 73.2115)" fill="#77FF77"/>
<ellipse cx="3.2736" cy="3.2736" rx="3.2736" ry="3.2736" transform="matrix(1 0 0 -1 54.9965 82.3775)" fill="#77FF77"/>
<path d="M179.472 114.52C173.696 114.52 168.68 113.203 164.424 110.568C160.269 107.933 157.027 104.235 154.696 99.472C152.467 94.7093 151.352 88.984 151.352 82.296V32.896H169.896V78.344C169.896 84.6267 171.365 89.592 174.304 93.24C177.344 96.888 181.549 98.712 186.92 98.712C189.555 98.712 191.936 98.3067 194.064 97.496C196.293 96.584 198.219 95.368 199.84 93.848C201.461 92.2267 202.728 90.3013 203.64 88.072C204.552 85.8427 205.008 83.4613 205.008 80.928V32.896H223.552V113H205.464L205.16 96.28L208.504 94.456C207.288 98.2053 205.211 101.6 202.272 104.64C199.435 107.68 196.04 110.112 192.088 111.936C188.136 113.659 183.931 114.52 179.472 114.52ZM277.993 114.52C270.798 114.52 264.364 112.747 258.689 109.2C253.116 105.552 248.657 100.637 245.313 94.456C242.07 88.1733 240.449 80.9787 240.449 72.872C240.449 64.8667 242.07 57.7227 245.313 51.44C248.556 45.1573 252.964 40.2427 258.537 36.696C264.212 33.048 270.596 31.224 277.689 31.224C281.54 31.224 285.238 31.832 288.785 33.048C292.433 34.264 295.676 35.936 298.513 38.064C301.452 40.0907 303.732 42.3707 305.353 44.904C307.076 47.4373 307.988 50.072 308.089 52.808L303.073 53.416V0.519999H321.769V113H303.681L303.225 94.304L306.873 94.608C306.772 97.04 305.91 99.4213 304.289 101.752C302.668 104.083 300.489 106.211 297.753 108.136C295.118 110.061 292.078 111.632 288.633 112.848C285.188 113.963 281.641 114.52 277.993 114.52ZM281.489 98.712C285.846 98.712 289.697 97.648 293.041 95.52C296.385 93.2907 298.969 90.2507 300.793 86.4C302.718 82.448 303.681 77.9387 303.681 72.872C303.681 67.8053 302.718 63.3467 300.793 59.496C298.969 55.6453 296.385 52.6053 293.041 50.376C289.697 48.1467 285.846 47.032 281.489 47.032C277.03 47.032 273.129 48.1467 269.785 50.376C266.542 52.6053 263.958 55.6453 262.033 59.496C260.108 63.3467 259.145 67.8053 259.145 72.872C259.145 77.9387 260.108 82.448 262.033 86.4C263.958 90.2507 266.542 93.2907 269.785 95.52C273.129 97.648 277.03 98.712 281.489 98.712ZM355.304 147.96L372.176 108.744L372.328 121.36L332.808 32.896H354.24L376.432 85.64C377.141 86.9573 377.851 88.7307 378.56 90.96C379.269 93.088 379.877 95.1653 380.384 97.192L376.584 98.56C377.293 96.6347 378.003 94.5573 378.712 92.328C379.523 90.0987 380.333 87.8693 381.144 85.64L399.992 32.896H421.576L388.288 113L374.76 147.96H355.304ZM477.509 113V61.776C477.509 57.4187 476.04 54.024 473.101 51.592C470.264 49.0587 466.565 47.792 462.005 47.792C457.749 47.792 453.899 48.6533 450.453 50.376C447.008 51.9973 443.816 54.632 440.877 58.28L429.325 46.728C434.088 41.6613 439.357 37.8107 445.133 35.176C450.909 32.5413 457.141 31.224 463.829 31.224C470.213 31.224 475.685 32.2373 480.245 34.264C484.907 36.2907 488.504 39.3307 491.037 43.384C493.571 47.336 494.837 52.2 494.837 57.976V113H477.509ZM454.709 114.52C449.541 114.52 444.931 113.507 440.877 111.48C436.824 109.453 433.581 106.667 431.149 103.12C428.819 99.472 427.653 95.216 427.653 90.352C427.653 86.096 428.413 82.3973 429.933 79.256C431.453 76.0133 433.683 73.328 436.621 71.2C439.661 69.072 443.411 67.5013 447.869 66.488C452.429 65.3733 457.648 64.816 463.525 64.816H486.477L485.109 78.192H462.461C459.725 78.192 457.293 78.4453 455.165 78.952C453.037 79.4587 451.213 80.2187 449.693 81.232C448.173 82.2453 447.059 83.4613 446.349 84.88C445.64 86.1973 445.285 87.8187 445.285 89.744C445.285 91.7707 445.792 93.544 446.805 95.064C447.819 96.4827 449.187 97.5973 450.909 98.408C452.632 99.2187 454.659 99.624 456.989 99.624C460.333 99.624 463.475 99.0667 466.413 97.952C469.453 96.8373 472.139 95.2667 474.469 93.24C476.8 91.2133 478.624 88.9333 479.941 86.4L483.741 96.736C481.613 100.283 478.979 103.373 475.837 106.008C472.797 108.643 469.453 110.72 465.805 112.24C462.259 113.76 458.56 114.52 454.709 114.52ZM566.418 113L543.466 81.992L539.362 76.368L506.378 32.896H529.33L551.826 63.296L556.234 69.376L588.914 113H566.418ZM506.226 113L537.994 70.592L548.482 83.208L528.114 113H506.226ZM556.386 75.608L546.202 62.992L564.594 32.896H586.634L556.386 75.608Z" fill="white"/>
</svg>
