<svg width="568" height="148" viewBox="0 0 568 148" fill="none" xmlns="http://www.w3.org/2000/svg">
<path d="M75.7669 102.214C75.4522 101.271 75.4522 99.805 75.7669 99.0719C76.1865 98.3388 77.5503 97.8151 78.8091 98.0246C80.4876 98.2341 81.117 99.0719 81.117 100.957C81.117 102.947 80.4876 103.68 78.7042 103.785C77.2356 103.994 76.1865 103.366 75.7669 102.214Z" fill="#77FF77"/>
<path d="M66.3258 102.214C66.011 101.271 66.011 99.805 66.3258 99.0719C66.7454 98.3388 68.1091 97.8151 69.368 98.0246C71.0465 98.2341 71.6759 99.0719 71.6759 100.957C71.6759 102.947 71.0465 103.68 69.368 103.785C67.7944 103.994 66.7454 103.366 66.3258 102.214Z" fill="#77FF77"/>
<path d="M56.8842 102.214C56.5695 101.271 56.5695 99.805 56.8842 99.0719C57.3038 98.3388 58.6676 97.8151 59.9265 98.0246C61.6049 98.2341 62.2344 99.0719 62.2344 100.957C62.2344 102.947 61.6049 103.68 59.9265 103.785C58.3529 103.994 57.3038 103.366 56.8842 102.214Z" fill="#77FF77"/>
<path d="M47.4431 102.214C47.1284 101.271 47.1284 99.805 47.4431 99.0719C47.8627 98.3388 49.2264 97.8151 50.4853 98.0246C52.1638 98.2341 52.7932 99.0719 52.7932 100.957C52.7932 102.947 52.1638 103.68 50.4853 103.785C48.9117 103.994 47.8627 103.366 47.4431 102.214Z" fill="#77FF77"/>
<path d="M38.0013 102.214C37.6866 101.271 37.6866 99.805 38.0013 99.0719C38.4209 98.3388 39.7847 97.8151 41.0435 98.0246C42.722 98.2341 43.3514 99.0719 43.3514 100.957C43.3514 102.947 42.722 103.68 41.0435 103.785C39.47 103.994 38.4209 103.366 38.0013 102.214Z" fill="#77FF77"/>
<path d="M28.5601 102.214C28.2454 101.271 28.2454 99.805 28.5601 99.0719C28.9797 98.3388 30.3435 97.8151 31.6024 98.0246C33.2808 98.2341 33.9103 99.0719 33.9103 100.957C33.9103 102.947 33.2808 103.68 31.6024 103.785C30.0288 103.994 28.9797 103.366 28.5601 102.214Z" fill="#77FF77"/>
<path d="M19.1187 102.214C18.804 101.271 18.804 99.805 19.1187 99.0719C19.5383 98.3388 20.9021 97.8151 22.161 98.0246C23.8394 98.2341 24.4688 99.0719 24.4688 100.957C24.4688 102.947 23.8394 103.68 22.161 103.785C20.5874 103.994 19.5383 103.366 19.1187 102.214Z" fill="#77FF77"/>
<path d="M85.2084 92.7882C84.8937 91.8457 84.8937 90.3795 85.2084 89.6464C85.6281 88.9133 86.9918 88.3897 88.2507 88.5992C89.9291 88.8086 90.5586 89.6464 90.5586 91.5315C90.5586 93.5213 89.9291 94.2544 88.1458 94.3591C86.6771 94.5686 85.6281 93.9402 85.2084 92.7882Z" fill="#77FF77"/>
<path d="M75.7669 92.7882C75.4522 91.8457 75.4522 90.3795 75.7669 89.6464C76.1865 88.9133 77.5503 88.3897 78.8091 88.5992C80.4876 88.8086 81.117 89.6464 81.117 91.5315C81.117 93.5213 80.4876 94.2544 78.7042 94.3591C77.2356 94.5686 76.1865 93.9402 75.7669 92.7882Z" fill="#77FF77"/>
<path d="M66.3258 92.7882C66.011 91.8457 66.011 90.3795 66.3258 89.6464C66.7454 88.9133 68.1091 88.3897 69.368 88.5992C71.0465 88.8086 71.6759 89.6464 71.6759 91.5315C71.6759 93.5213 71.0465 94.2544 69.368 94.3591C67.7944 94.5686 66.7454 93.9402 66.3258 92.7882Z" fill="#77FF77"/>
<path d="M28.5601 92.7882C28.2454 91.8457 28.2454 90.3795 28.5601 89.6464C28.9797 88.9133 30.3435 88.3897 31.6024 88.5992C33.2808 88.8086 33.9103 89.6464 33.9103 91.5315C33.9103 93.5213 33.2808 94.2544 31.6024 94.3591C30.0288 94.5686 28.9797 93.9402 28.5601 92.7882Z" fill="#77FF77"/>
<path d="M19.1187 92.7882C18.804 91.8457 18.804 90.3795 19.1187 89.6464C19.5383 88.9133 20.9021 88.3897 22.161 88.5992C23.8394 88.8086 24.4688 89.6464 24.4688 91.5315C24.4688 93.5213 23.8394 94.2544 22.161 94.3591C20.5874 94.5686 19.5383 93.9402 19.1187 92.7882Z" fill="#77FF77"/>
<path d="M9.67744 92.7882C9.36273 91.8457 9.36273 90.3795 9.67744 89.6464C10.0971 88.9133 11.4608 88.3897 12.7197 88.5992C14.3981 88.8086 15.0276 89.6464 15.0276 91.5315C15.0276 93.5213 14.3981 94.2544 12.6148 94.3591C11.1461 94.5686 10.0971 93.9402 9.67744 92.7882Z" fill="#77FF77"/>
<path d="M85.2084 83.3628C84.8937 82.4203 84.8937 80.9541 85.2084 80.221C85.6281 79.4879 86.9918 78.9643 88.2507 79.1737C89.9291 79.3832 90.5586 80.221 90.5586 82.1061C90.5586 84.0959 89.9291 84.829 88.1458 84.9337C86.6771 85.1432 85.6281 84.5148 85.2084 83.3628Z" fill="#77FF77"/>
<path d="M75.7669 83.3628C75.4522 82.4203 75.4522 80.9541 75.7669 80.221C76.1865 79.4879 77.5503 78.9643 78.8091 79.1737C80.4876 79.3832 81.117 80.221 81.117 82.1061C81.117 84.0959 80.4876 84.829 78.7042 84.9337C77.2356 85.1432 76.1865 84.5148 75.7669 83.3628Z" fill="#77FF77"/>
<path d="M47.4431 83.3628C47.1284 82.4203 47.1284 80.9541 47.4431 80.221C47.8627 79.4879 49.2264 78.9643 50.4853 79.1737C52.1638 79.3832 52.7932 80.221 52.7932 82.1061C52.7932 84.0959 52.1638 84.829 50.4853 84.9337C48.9117 85.1432 47.8627 84.5148 47.4431 83.3628Z" fill="#77FF77"/>
<path d="M19.1187 83.3628C18.804 82.4203 18.804 80.9541 19.1187 80.221C19.5383 79.4879 20.9021 78.9643 22.161 79.1737C23.8394 79.3832 24.4688 80.221 24.4688 82.1061C24.4688 84.0959 23.8394 84.829 22.161 84.9337C20.5874 85.1432 19.5383 84.5148 19.1187 83.3628Z" fill="#77FF77"/>
<path d="M9.67744 83.3628C9.36273 82.4203 9.36273 80.9541 9.67744 80.221C10.0971 79.4879 11.4608 78.9643 12.7197 79.1737C14.3981 79.3832 15.0276 80.221 15.0276 82.1061C15.0276 84.0959 14.3981 84.829 12.6148 84.9337C11.1461 85.1432 10.0971 84.5148 9.67744 83.3628Z" fill="#77FF77"/>
<path d="M85.2084 73.9374C84.8937 72.9949 84.8937 71.5287 85.2084 70.7956C85.6281 70.0625 86.9918 69.5389 88.2507 69.7484C89.9291 69.9578 90.5586 70.7956 90.5586 72.6807C90.5586 74.6705 89.9291 75.4036 88.1458 75.5083C86.6771 75.7178 85.6281 75.0894 85.2084 73.9374Z" fill="#77FF77"/>
<path d="M75.7669 73.9374C75.4522 72.9949 75.4522 71.5287 75.7669 70.7956C76.1865 70.0625 77.5503 69.5389 78.8091 69.7484C80.4876 69.9578 81.117 70.7956 81.117 72.6807C81.117 74.6705 80.4876 75.4036 78.7042 75.5083C77.2356 75.7178 76.1865 75.0894 75.7669 73.9374Z" fill="#77FF77"/>
<path d="M56.8842 73.9374C56.5695 72.9949 56.5695 71.5287 56.8842 70.7956C57.3038 70.0625 58.6676 69.5389 59.9265 69.7484C61.6049 69.9578 62.2344 70.7956 62.2344 72.6807C62.2344 74.6705 61.6049 75.4036 59.9265 75.5083C58.3529 75.7178 57.3038 75.0894 56.8842 73.9374Z" fill="#77FF77"/>
<path d="M47.4431 73.9374C47.1284 72.9949 47.1284 71.5287 47.4431 70.7956C47.8627 70.0625 49.2264 69.5389 50.4853 69.7484C52.1638 69.9578 52.7932 70.7956 52.7932 72.6807C52.7932 74.6705 52.1638 75.4036 50.4853 75.5083C48.9117 75.7178 47.8627 75.0894 47.4431 73.9374Z" fill="#77FF77"/>
<path d="M38.0013 73.9374C37.6866 72.9949 37.6866 71.5287 38.0013 70.7956C38.4209 70.0625 39.7847 69.5389 41.0435 69.7484C42.722 69.9578 43.3514 70.7956 43.3514 72.6807C43.3514 74.6705 42.722 75.4036 41.0435 75.5083C39.47 75.7178 38.4209 75.0894 38.0013 73.9374Z" fill="#77FF77"/>
<path d="M19.1187 73.9374C18.804 72.9949 18.804 71.5287 19.1187 70.7956C19.5383 70.0625 20.9021 69.5389 22.161 69.7484C23.8394 69.9578 24.4688 70.7956 24.4688 72.6807C24.4688 74.6705 23.8394 75.4036 22.161 75.5083C20.5874 75.7178 19.5383 75.0894 19.1187 73.9374Z" fill="#77FF77"/>
<path d="M9.67744 73.9374C9.36273 72.9949 9.36273 71.5287 9.67744 70.7956C10.0971 70.0625 11.4608 69.5389 12.7197 69.7484C14.3981 69.9578 15.0276 70.7956 15.0276 72.6807C15.0276 74.6705 14.3981 75.4036 12.6148 75.5083C11.1461 75.7178 10.0971 75.0894 9.67744 73.9374Z" fill="#77FF77"/>
<path d="M85.2084 64.5119C84.8937 63.5693 84.8937 62.1031 85.2084 61.3701C85.6281 60.637 86.9918 60.1133 88.2507 60.3228C89.9291 60.5322 90.5586 61.3701 90.5586 63.2551C90.5586 65.245 89.9291 65.9781 88.1458 66.0828C86.6771 66.2922 85.6281 65.6639 85.2084 64.5119Z" fill="#77FF77"/>
<path d="M75.7669 64.5119C75.4522 63.5693 75.4522 62.1031 75.7669 61.3701C76.1865 60.637 77.5503 60.1133 78.8091 60.3228C80.4876 60.5322 81.117 61.3701 81.117 63.2551C81.117 65.245 80.4876 65.9781 78.7042 66.0828C77.2356 66.2922 76.1865 65.6639 75.7669 64.5119Z" fill="#77FF77"/>
<path d="M47.4431 64.5119C47.1284 63.5693 47.1284 62.1031 47.4431 61.3701C47.8627 60.637 49.2264 60.1133 50.4853 60.3228C52.1638 60.5322 52.7932 61.3701 52.7932 63.2551C52.7932 65.245 52.1638 65.9781 50.4853 66.0828C48.9117 66.2922 47.8627 65.6639 47.4431 64.5119Z" fill="#77FF77"/>
<path d="M19.1187 64.5119C18.804 63.5693 18.804 62.1031 19.1187 61.3701C19.5383 60.637 20.9021 60.1133 22.161 60.3228C23.8394 60.5322 24.4688 61.3701 24.4688 63.2551C24.4688 65.245 23.8394 65.9781 22.161 66.0828C20.5874 66.2922 19.5383 65.6639 19.1187 64.5119Z" fill="#77FF77"/>
<path d="M9.67744 64.5119C9.36273 63.5693 9.36273 62.1031 9.67744 61.3701C10.0971 60.637 11.4608 60.1133 12.7197 60.3228C14.3981 60.5322 15.0276 61.3701 15.0276 63.2551C15.0276 65.245 14.3981 65.9781 12.6148 66.0828C11.1461 66.2922 10.0971 65.6639 9.67744 64.5119Z" fill="#77FF77"/>
<path d="M85.2084 55.1912C84.8937 54.1439 84.8937 52.6777 85.2084 51.9446C85.6281 51.2116 86.9918 50.6879 88.2507 50.8974C89.9291 51.1068 90.5586 51.9446 90.5586 53.8297C90.5586 55.8195 89.9291 56.5526 88.1458 56.7621C86.6771 56.8668 85.6281 56.2385 85.2084 55.1912Z" fill="#77FF77"/>
<path d="M75.7669 55.1912C75.4522 54.1439 75.4522 52.6777 75.7669 51.9446C76.1865 51.2116 77.5503 50.6879 78.8091 50.8974C80.4876 51.1068 81.117 51.9446 81.117 53.8297C81.117 55.8195 80.4876 56.5526 78.7042 56.7621C77.2356 56.8668 76.1865 56.2385 75.7669 55.1912Z" fill="#77FF77"/>
<path d="M66.3258 55.1912C66.011 54.1439 66.011 52.6777 66.3258 51.9446C66.7454 51.2116 68.1091 50.6879 69.368 50.8974C71.0465 51.1068 71.6759 51.9446 71.6759 53.8297C71.6759 55.8195 71.0465 56.5526 69.368 56.7621C67.7944 56.8668 66.7454 56.2385 66.3258 55.1912Z" fill="#77FF77"/>
<path d="M28.5601 55.1912C28.2454 54.1439 28.2454 52.6777 28.5601 51.9446C28.9797 51.2116 30.3435 50.6879 31.6024 50.8974C33.2808 51.1068 33.9103 51.9446 33.9103 53.8297C33.9103 55.8195 33.2808 56.5526 31.6024 56.7621C30.0288 56.8668 28.9797 56.2385 28.5601 55.1912Z" fill="#77FF77"/>
<path d="M19.1187 55.1912C18.804 54.1439 18.804 52.6777 19.1187 51.9446C19.5383 51.2116 20.9021 50.6879 22.161 50.8974C23.8394 51.1068 24.4688 51.9446 24.4688 53.8297C24.4688 55.8195 23.8394 56.5526 22.161 56.7621C20.5874 56.8668 19.5383 56.2385 19.1187 55.1912Z" fill="#77FF77"/>
<path d="M9.67744 55.1912C9.36273 54.1439 9.36273 52.6777 9.67744 51.9446C10.0971 51.2116 11.4608 50.6879 12.7197 50.8974C14.3981 51.1068 15.0276 51.9446 15.0276 53.8297C15.0276 55.8195 14.3981 56.5526 12.6148 56.7621C11.1461 56.8668 10.0971 56.2385 9.67744 55.1912Z" fill="#77FF77"/>
<path d="M75.7669 45.7658C75.4522 44.7185 75.4522 43.2523 75.7669 42.5193C76.1865 41.7862 77.5503 41.2625 78.8091 41.472C80.4876 41.6814 81.117 42.5193 81.117 44.4043C81.117 46.3942 80.4876 47.1273 78.7042 47.3367C77.2356 47.4414 76.1865 46.8131 75.7669 45.7658Z" fill="#77FF77"/>
<path d="M66.3258 45.7658C66.011 44.7185 66.011 43.2523 66.3258 42.5193C66.7454 41.7862 68.1091 41.2625 69.368 41.472C71.0465 41.6814 71.6759 42.5193 71.6759 44.4043C71.6759 46.3942 71.0465 47.1273 69.368 47.3367C67.7944 47.4414 66.7454 46.8131 66.3258 45.7658Z" fill="#77FF77"/>
<path d="M56.8842 45.7658C56.5695 44.7185 56.5695 43.2523 56.8842 42.5193C57.3038 41.7862 58.6676 41.2625 59.9265 41.472C61.6049 41.6814 62.2344 42.5193 62.2344 44.4043C62.2344 46.3942 61.6049 47.1273 59.9265 47.3367C58.3529 47.4414 57.3038 46.8131 56.8842 45.7658Z" fill="#77FF77"/>
<path d="M47.4431 45.7658C47.1284 44.7185 47.1284 43.2523 47.4431 42.5193C47.8627 41.7862 49.2264 41.2625 50.4853 41.472C52.1638 41.6814 52.7932 42.5193 52.7932 44.4043C52.7932 46.3942 52.1638 47.1273 50.4853 47.3367C48.9117 47.4414 47.8627 46.8131 47.4431 45.7658Z" fill="#77FF77"/>
<path d="M38.0013 45.7658C37.6866 44.7185 37.6866 43.2523 38.0013 42.5193C38.4209 41.7862 39.7847 41.2625 41.0435 41.472C42.722 41.6814 43.3514 42.5193 43.3514 44.4043C43.3514 46.3942 42.722 47.1273 41.0435 47.3367C39.47 47.4414 38.4209 46.8131 38.0013 45.7658Z" fill="#77FF77"/>
<path d="M28.5601 45.7658C28.2454 44.7185 28.2454 43.2523 28.5601 42.5193C28.9797 41.7862 30.3435 41.2625 31.6024 41.472C33.2808 41.6814 33.9103 42.5193 33.9103 44.4043C33.9103 46.3942 33.2808 47.1273 31.6024 47.3367C30.0288 47.4414 28.9797 46.8131 28.5601 45.7658Z" fill="#77FF77"/>
<path d="M19.1187 45.7658C18.804 44.7185 18.804 43.2523 19.1187 42.5193C19.5383 41.7862 20.9021 41.2625 22.161 41.472C23.8394 41.6814 24.4688 42.5193 24.4688 44.4043C24.4688 46.3942 23.8394 47.1273 22.161 47.3367C20.5874 47.4414 19.5383 46.8131 19.1187 45.7658Z" fill="#77FF77"/>
<path d="M38.0013 36.3404C37.6866 35.2931 37.6866 33.8269 38.0013 33.0938C38.4209 32.3607 39.7847 31.8371 41.0435 32.0465C42.722 32.256 43.3514 33.0938 43.3514 34.9789C43.3514 36.9687 42.722 37.7018 41.0435 37.9113C39.47 38.016 38.4209 37.3876 38.0013 36.3404Z" fill="#77FF77"/>
<path d="M47.4431 36.3404C47.1284 35.2931 47.1284 33.8269 47.4431 33.0938C47.8627 32.3607 49.2264 31.8371 50.4853 32.0465C52.1638 32.256 52.7932 33.0938 52.7932 34.9789C52.7932 36.9687 52.1638 37.7018 50.4853 37.9113C48.9117 38.016 47.8627 37.3876 47.4431 36.3404Z" fill="#77FF77"/>
<path d="M56.8842 36.3404C56.5695 35.2931 56.5695 33.8269 56.8842 33.0938C57.3038 32.3607 58.6676 31.8371 59.9265 32.0465C61.6049 32.256 62.2344 33.0938 62.2344 34.9789C62.2344 36.9687 61.6049 37.7018 59.9265 37.9113C58.3529 38.016 57.3038 37.3876 56.8842 36.3404Z" fill="#77FF77"/>
<path d="M0.236035 64.5119C-0.0786783 63.5693 -0.0786783 62.1031 0.236035 61.3701C0.655652 60.637 2.01941 60.1133 3.27826 60.3228C4.95673 60.5322 5.58616 61.3701 5.58616 63.2551C5.58616 65.245 4.95673 65.9781 3.27826 66.0828C1.7047 66.2922 0.655652 65.6639 0.236035 64.5119Z" fill="#77FF77"/>
<path d="M94.65 64.5119C94.3353 63.5693 94.3353 62.1031 94.65 61.3701C95.0696 60.637 96.4333 60.1133 97.6922 60.3228C99.3707 60.5322 100 61.3701 100 63.2551C100 65.245 99.3707 65.9781 97.5873 66.0828C96.1186 66.2922 95.0696 65.6639 94.65 64.5119Z" fill="#77FF77"/>
<path d="M0.236035 73.9374C-0.0786783 72.9949 -0.0786783 71.5287 0.236035 70.7956C0.655652 70.0625 2.01941 69.5389 3.27826 69.7484C4.95673 69.9578 5.58616 70.7956 5.58616 72.6807C5.58616 74.6705 4.95673 75.4036 3.27826 75.5083C1.7047 75.7178 0.655652 75.0894 0.236035 73.9374Z" fill="#77FF77"/>
<path d="M94.65 73.9374C94.3353 72.9949 94.3353 71.5287 94.65 70.7956C95.0696 70.0625 96.4333 69.5389 97.6922 69.7484C99.3707 69.9578 100 70.7956 100 72.6807C100 74.6705 99.3707 75.4036 97.5873 75.5083C96.1186 75.7178 95.0696 75.0894 94.65 73.9374Z" fill="#77FF77"/>
<path d="M0.236035 83.3628C-0.0786783 82.4203 -0.0786783 80.9541 0.236035 80.221C0.655652 79.4879 2.01941 78.9643 3.27826 79.1737C4.95673 79.3832 5.58616 80.221 5.58616 82.1061C5.58616 84.0959 4.95673 84.829 3.27826 84.9337C1.7047 85.1432 0.655652 84.5148 0.236035 83.3628Z" fill="#77FF77"/>
<path d="M94.65 83.3628C94.3353 82.4203 94.3353 80.9541 94.65 80.221C95.0696 79.4879 96.4333 78.9643 97.6922 79.1737C99.3707 79.3832 100 80.221 100 82.1061C100 84.0959 99.3707 84.829 97.5873 84.9337C96.1186 85.1432 95.0696 84.5148 94.65 83.3628Z" fill="#77FF77"/>
<path d="M38.0013 111.639C37.6866 110.697 37.6866 109.23 38.0013 108.497C38.4209 107.764 39.7847 107.241 41.0435 107.45C42.722 107.66 43.3514 108.497 43.3514 110.382C43.3514 112.372 42.722 113.105 41.0435 113.21C39.47 113.42 38.4209 112.791 38.0013 111.639Z" fill="#77FF77"/>
<path d="M47.4431 111.639C47.1284 110.697 47.1284 109.23 47.4431 108.497C47.8627 107.764 49.2264 107.241 50.4853 107.45C52.1638 107.66 52.7932 108.497 52.7932 110.382C52.7932 112.372 52.1638 113.105 50.4853 113.21C48.9117 113.42 47.8627 112.791 47.4431 111.639Z" fill="#77FF77"/>
<path d="M56.8842 111.639C56.5695 110.697 56.5695 109.23 56.8842 108.497C57.3038 107.764 58.6676 107.241 59.9265 107.45C61.6049 107.66 62.2344 108.497 62.2344 110.382C62.2344 112.372 61.6049 113.105 59.9265 113.21C58.3529 113.42 57.3038 112.791 56.8842 111.639Z" fill="#77FF77"/>
<path d="M155.932 114.52C150.156 114.52 145.14 113.203 140.884 110.568C136.729 107.933 133.487 104.235 131.156 99.472C128.927 94.7093 127.812 88.984 127.812 82.296V32.896H146.356V78.344C146.356 84.6267 147.825 89.592 150.764 93.24C153.804 96.888 158.009 98.712 163.38 98.712C166.015 98.712 168.396 98.3067 170.524 97.496C172.753 96.584 174.679 95.368 176.3 93.848C177.921 92.2267 179.188 90.3013 180.1 88.072C181.012 85.8427 181.468 83.4613 181.468 80.928V32.896H200.012V113H181.924L181.62 96.28L184.964 94.456C183.748 98.2053 181.671 101.6 178.732 104.64C175.895 107.68 172.5 110.112 168.548 111.936C164.596 113.659 160.391 114.52 155.932 114.52ZM254.453 114.52C247.258 114.52 240.823 112.747 235.149 109.2C229.575 105.552 225.117 100.637 221.773 94.456C218.53 88.1733 216.909 80.9787 216.909 72.872C216.909 64.8667 218.53 57.7227 221.773 51.44C225.015 45.1573 229.423 40.2427 234.997 36.696C240.671 33.048 247.055 31.224 254.149 31.224C257.999 31.224 261.698 31.832 265.245 33.048C268.893 34.264 272.135 35.936 274.973 38.064C277.911 40.0907 280.191 42.3707 281.813 44.904C283.535 47.4373 284.447 50.072 284.549 52.808L279.533 53.416V0.519999H298.229V113H280.141L279.685 94.304L283.333 94.608C283.231 97.04 282.37 99.4213 280.749 101.752C279.127 104.083 276.949 106.211 274.213 108.136C271.578 110.061 268.538 111.632 265.093 112.848C261.647 113.963 258.101 114.52 254.453 114.52ZM257.949 98.712C262.306 98.712 266.157 97.648 269.501 95.52C272.845 93.2907 275.429 90.2507 277.253 86.4C279.178 82.448 280.141 77.9387 280.141 72.872C280.141 67.8053 279.178 63.3467 277.253 59.496C275.429 55.6453 272.845 52.6053 269.501 50.376C266.157 48.1467 262.306 47.032 257.949 47.032C253.49 47.032 249.589 48.1467 246.245 50.376C243.002 52.6053 240.418 55.6453 238.493 59.496C236.567 63.3467 235.605 67.8053 235.605 72.872C235.605 77.9387 236.567 82.448 238.493 86.4C240.418 90.2507 243.002 93.2907 246.245 95.52C249.589 97.648 253.49 98.712 257.949 98.712ZM331.764 147.96L348.636 108.744L348.788 121.36L309.268 32.896H330.7L352.892 85.64C353.601 86.9573 354.31 88.7307 355.02 90.96C355.729 93.088 356.337 95.1653 356.844 97.192L353.044 98.56C353.753 96.6347 354.462 94.5573 355.172 92.328C355.982 90.0987 356.793 87.8693 357.604 85.64L376.452 32.896H398.036L364.748 113L351.22 147.96H331.764ZM453.969 113V61.776C453.969 57.4187 452.5 54.024 449.561 51.592C446.724 49.0587 443.025 47.792 438.465 47.792C434.209 47.792 430.359 48.6533 426.913 50.376C423.468 51.9973 420.276 54.632 417.337 58.28L405.785 46.728C410.548 41.6613 415.817 37.8107 421.593 35.176C427.369 32.5413 433.601 31.224 440.289 31.224C446.673 31.224 452.145 32.2373 456.705 34.264C461.367 36.2907 464.964 39.3307 467.497 43.384C470.031 47.336 471.297 52.2 471.297 57.976V113H453.969ZM431.169 114.52C426.001 114.52 421.391 113.507 417.337 111.48C413.284 109.453 410.041 106.667 407.609 103.12C405.279 99.472 404.113 95.216 404.113 90.352C404.113 86.096 404.873 82.3973 406.393 79.256C407.913 76.0133 410.143 73.328 413.081 71.2C416.121 69.072 419.871 67.5013 424.329 66.488C428.889 65.3733 434.108 64.816 439.985 64.816H462.937L461.569 78.192H438.921C436.185 78.192 433.753 78.4453 431.625 78.952C429.497 79.4587 427.673 80.2187 426.153 81.232C424.633 82.2453 423.519 83.4613 422.809 84.88C422.1 86.1973 421.745 87.8187 421.745 89.744C421.745 91.7707 422.252 93.544 423.265 95.064C424.279 96.4827 425.647 97.5973 427.369 98.408C429.092 99.2187 431.119 99.624 433.449 99.624C436.793 99.624 439.935 99.0667 442.873 97.952C445.913 96.8373 448.599 95.2667 450.929 93.24C453.26 91.2133 455.084 88.9333 456.401 86.4L460.201 96.736C458.073 100.283 455.439 103.373 452.297 106.008C449.257 108.643 445.913 110.72 442.265 112.24C438.719 113.76 435.02 114.52 431.169 114.52ZM542.878 113L519.926 81.992L515.822 76.368L482.838 32.896H505.79L528.286 63.296L532.694 69.376L565.374 113H542.878ZM482.686 113L514.454 70.592L524.942 83.208L504.574 113H482.686ZM532.846 75.608L522.662 62.992L541.054 32.896H563.094L532.846 75.608Z" fill="white"/>
</svg>
