<svg width="140" height="140" viewBox="0 0 140 140" fill="none" xmlns="http://www.w3.org/2000/svg">
<rect width="140" height="140" rx="25" fill="#1F1F1F"/>
<path d="M90.6135 94.1709C90.3617 93.4169 90.3617 92.2439 90.6135 91.6575C90.9492 91.071 92.0402 90.6521 93.0473 90.8196C94.3901 90.9872 94.8936 91.6575 94.8936 93.1655C94.8936 94.7574 94.3901 95.3439 92.9634 95.4276C91.7884 95.5952 90.9492 95.0925 90.6135 94.1709Z" fill="#77FF77"/>
<path d="M83.0607 94.1709C82.8089 93.4169 82.8089 92.2439 83.0607 91.6575C83.3963 91.071 84.4874 90.6521 85.4944 90.8196C86.8372 90.9872 87.3408 91.6575 87.3408 93.1655C87.3408 94.7574 86.8372 95.3439 85.4944 95.4276C84.2356 95.5952 83.3963 95.0925 83.0607 94.1709Z" fill="#77FF77"/>
<path d="M75.5074 94.1709C75.2557 93.4169 75.2557 92.2439 75.5074 91.6575C75.8431 91.071 76.9341 90.6521 77.9412 90.8196C79.284 90.9872 79.7875 91.6575 79.7875 93.1655C79.7875 94.7574 79.284 95.3439 77.9412 95.4276C76.6824 95.5952 75.8431 95.0925 75.5074 94.1709Z" fill="#77FF77"/>
<path d="M67.9545 94.1709C67.7027 93.4169 67.7027 92.2439 67.9545 91.6575C68.2901 91.071 69.3812 90.6521 70.3882 90.8196C71.731 90.9872 72.2346 91.6575 72.2346 93.1655C72.2346 94.7574 71.731 95.3439 70.3882 95.4276C69.1294 95.5952 68.2901 95.0925 67.9545 94.1709Z" fill="#77FF77"/>
<path d="M60.401 94.1709C60.1492 93.4169 60.1492 92.2439 60.401 91.6575C60.7367 91.071 61.8277 90.6521 62.8348 90.8196C64.1775 90.9872 64.6811 91.6575 64.6811 93.1655C64.6811 94.7574 64.1775 95.3439 62.8348 95.4276C61.5759 95.5952 60.7367 95.0925 60.401 94.1709Z" fill="#77FF77"/>
<path d="M52.8481 94.1709C52.5964 93.4169 52.5964 92.2439 52.8481 91.6575C53.1838 91.071 54.2748 90.6521 55.2819 90.8196C56.6247 90.9872 57.1282 91.6575 57.1282 93.1655C57.1282 94.7574 56.6247 95.3439 55.2819 95.4276C54.0231 95.5952 53.1838 95.0925 52.8481 94.1709Z" fill="#77FF77"/>
<path d="M45.295 94.1709C45.0433 93.4169 45.0433 92.2439 45.295 91.6575C45.6307 91.071 46.7217 90.6521 47.7288 90.8196C49.0716 90.9872 49.5751 91.6575 49.5751 93.1655C49.5751 94.7574 49.0716 95.3439 47.7288 95.4276C46.47 95.5952 45.6307 95.0925 45.295 94.1709Z" fill="#77FF77"/>
<path d="M98.1667 86.6306C97.915 85.8765 97.915 84.7036 98.1667 84.1171C98.5024 83.5306 99.5934 83.1117 100.601 83.2793C101.943 83.4469 102.447 84.1171 102.447 85.6252C102.447 87.217 101.943 87.8035 100.517 87.8873C99.3417 88.0549 98.5024 87.5522 98.1667 86.6306Z" fill="#77FF77"/>
<path d="M90.6135 86.6306C90.3617 85.8765 90.3617 84.7036 90.6135 84.1171C90.9492 83.5306 92.0402 83.1117 93.0473 83.2793C94.3901 83.4469 94.8936 84.1171 94.8936 85.6252C94.8936 87.217 94.3901 87.8035 92.9634 87.8873C91.7884 88.0549 90.9492 87.5522 90.6135 86.6306Z" fill="#77FF77"/>
<path d="M83.0607 86.6306C82.8089 85.8765 82.8089 84.7036 83.0607 84.1171C83.3963 83.5306 84.4874 83.1117 85.4944 83.2793C86.8372 83.4469 87.3408 84.1171 87.3408 85.6252C87.3408 87.217 86.8372 87.8035 85.4944 87.8873C84.2356 88.0549 83.3963 87.5522 83.0607 86.6306Z" fill="#77FF77"/>
<path d="M52.8481 86.6306C52.5964 85.8765 52.5964 84.7036 52.8481 84.1171C53.1838 83.5306 54.2748 83.1117 55.2819 83.2793C56.6247 83.4469 57.1282 84.1171 57.1282 85.6252C57.1282 87.217 56.6247 87.8035 55.2819 87.8873C54.0231 88.0549 53.1838 87.5522 52.8481 86.6306Z" fill="#77FF77"/>
<path d="M45.295 86.6306C45.0433 85.8765 45.0433 84.7036 45.295 84.1171C45.6307 83.5306 46.7217 83.1117 47.7288 83.2793C49.0716 83.4469 49.5751 84.1171 49.5751 85.6252C49.5751 87.217 49.0716 87.8035 47.7288 87.8873C46.47 88.0549 45.6307 87.5522 45.295 86.6306Z" fill="#77FF77"/>
<path d="M37.7419 86.6306C37.4902 85.8765 37.4902 84.7036 37.7419 84.1171C38.0776 83.5306 39.1686 83.1117 40.1757 83.2793C41.5185 83.4469 42.022 84.1171 42.022 85.6252C42.022 87.217 41.5185 87.8035 40.0918 87.8873C38.9169 88.0549 38.0776 87.5522 37.7419 86.6306Z" fill="#77FF77"/>
<path d="M98.1667 79.0903C97.915 78.3362 97.915 77.1633 98.1667 76.5768C98.5024 75.9904 99.5934 75.5715 100.601 75.739C101.943 75.9066 102.447 76.5768 102.447 78.0849C102.447 79.6768 101.943 80.2632 100.517 80.347C99.3417 80.5146 98.5024 80.0119 98.1667 79.0903Z" fill="#77FF77"/>
<path d="M90.6135 79.0903C90.3617 78.3362 90.3617 77.1633 90.6135 76.5768C90.9492 75.9904 92.0402 75.5715 93.0473 75.739C94.3901 75.9066 94.8936 76.5768 94.8936 78.0849C94.8936 79.6768 94.3901 80.2632 92.9634 80.347C91.7884 80.5146 90.9492 80.0119 90.6135 79.0903Z" fill="#77FF77"/>
<path d="M67.9545 79.0903C67.7027 78.3362 67.7027 77.1633 67.9545 76.5768C68.2901 75.9904 69.3812 75.5715 70.3882 75.739C71.731 75.9066 72.2346 76.5768 72.2346 78.0849C72.2346 79.6768 71.731 80.2632 70.3882 80.347C69.1294 80.5146 68.2901 80.0119 67.9545 79.0903Z" fill="#77FF77"/>
<path d="M45.295 79.0903C45.0433 78.3362 45.0433 77.1633 45.295 76.5768C45.6307 75.9904 46.7217 75.5715 47.7288 75.739C49.0716 75.9066 49.5751 76.5768 49.5751 78.0849C49.5751 79.6768 49.0716 80.2632 47.7288 80.347C46.47 80.5146 45.6307 80.0119 45.295 79.0903Z" fill="#77FF77"/>
<path d="M37.7419 79.0903C37.4902 78.3362 37.4902 77.1633 37.7419 76.5768C38.0776 75.9904 39.1686 75.5715 40.1757 75.739C41.5185 75.9066 42.022 76.5768 42.022 78.0849C42.022 79.6768 41.5185 80.2632 40.0918 80.347C38.9169 80.5146 38.0776 80.0119 37.7419 79.0903Z" fill="#77FF77"/>
<path d="M98.1667 71.5499C97.915 70.7959 97.915 69.623 98.1667 69.0365C98.5024 68.45 99.5934 68.0311 100.601 68.1987C101.943 68.3662 102.447 69.0365 102.447 70.5446C102.447 72.1364 101.943 72.7229 100.517 72.8067C99.3417 72.9742 98.5024 72.4715 98.1667 71.5499Z" fill="#77FF77"/>
<path d="M90.6135 71.5499C90.3617 70.7959 90.3617 69.623 90.6135 69.0365C90.9492 68.45 92.0402 68.0311 93.0473 68.1987C94.3901 68.3662 94.8936 69.0365 94.8936 70.5446C94.8936 72.1364 94.3901 72.7229 92.9634 72.8067C91.7884 72.9742 90.9492 72.4715 90.6135 71.5499Z" fill="#77FF77"/>
<path d="M75.5074 71.5499C75.2557 70.7959 75.2557 69.623 75.5074 69.0365C75.8431 68.45 76.9341 68.0311 77.9412 68.1987C79.284 68.3662 79.7875 69.0365 79.7875 70.5446C79.7875 72.1364 79.284 72.7229 77.9412 72.8067C76.6824 72.9742 75.8431 72.4715 75.5074 71.5499Z" fill="#77FF77"/>
<path d="M67.9545 71.5499C67.7027 70.7959 67.7027 69.623 67.9545 69.0365C68.2901 68.45 69.3812 68.0311 70.3882 68.1987C71.731 68.3662 72.2346 69.0365 72.2346 70.5446C72.2346 72.1364 71.731 72.7229 70.3882 72.8067C69.1294 72.9742 68.2901 72.4715 67.9545 71.5499Z" fill="#77FF77"/>
<path d="M60.401 71.5499C60.1492 70.7959 60.1492 69.623 60.401 69.0365C60.7367 68.45 61.8277 68.0311 62.8348 68.1987C64.1775 68.3662 64.6811 69.0365 64.6811 70.5446C64.6811 72.1364 64.1775 72.7229 62.8348 72.8067C61.5759 72.9742 60.7367 72.4715 60.401 71.5499Z" fill="#77FF77"/>
<path d="M45.295 71.5499C45.0433 70.7959 45.0433 69.623 45.295 69.0365C45.6307 68.45 46.7217 68.0311 47.7288 68.1987C49.0716 68.3662 49.5751 69.0365 49.5751 70.5446C49.5751 72.1364 49.0716 72.7229 47.7288 72.8067C46.47 72.9742 45.6307 72.4715 45.295 71.5499Z" fill="#77FF77"/>
<path d="M37.7419 71.5499C37.4902 70.7959 37.4902 69.623 37.7419 69.0365C38.0776 68.45 39.1686 68.0311 40.1757 68.1987C41.5185 68.3662 42.022 69.0365 42.022 70.5446C42.022 72.1364 41.5185 72.7229 40.0918 72.8067C38.9169 72.9742 38.0776 72.4715 37.7419 71.5499Z" fill="#77FF77"/>
<path d="M98.1667 64.0095C97.915 63.2555 97.915 62.0825 98.1667 61.4961C98.5024 60.9096 99.5934 60.4907 100.601 60.6582C101.943 60.8258 102.447 61.4961 102.447 63.0041C102.447 64.596 101.943 65.1824 100.517 65.2662C99.3417 65.4338 98.5024 64.9311 98.1667 64.0095Z" fill="#77FF77"/>
<path d="M90.6135 64.0095C90.3617 63.2555 90.3617 62.0825 90.6135 61.4961C90.9492 60.9096 92.0402 60.4907 93.0473 60.6582C94.3901 60.8258 94.8936 61.4961 94.8936 63.0041C94.8936 64.596 94.3901 65.1824 92.9634 65.2662C91.7884 65.4338 90.9492 64.9311 90.6135 64.0095Z" fill="#77FF77"/>
<path d="M67.9545 64.0095C67.7027 63.2555 67.7027 62.0825 67.9545 61.4961C68.2901 60.9096 69.3812 60.4907 70.3882 60.6582C71.731 60.8258 72.2346 61.4961 72.2346 63.0041C72.2346 64.596 71.731 65.1824 70.3882 65.2662C69.1294 65.4338 68.2901 64.9311 67.9545 64.0095Z" fill="#77FF77"/>
<path d="M45.295 64.0095C45.0433 63.2555 45.0433 62.0825 45.295 61.4961C45.6307 60.9096 46.7217 60.4907 47.7288 60.6582C49.0716 60.8258 49.5751 61.4961 49.5751 63.0041C49.5751 64.596 49.0716 65.1824 47.7288 65.2662C46.47 65.4338 45.6307 64.9311 45.295 64.0095Z" fill="#77FF77"/>
<path d="M37.7419 64.0095C37.4902 63.2555 37.4902 62.0825 37.7419 61.4961C38.0776 60.9096 39.1686 60.4907 40.1757 60.6582C41.5185 60.8258 42.022 61.4961 42.022 63.0041C42.022 64.596 41.5185 65.1824 40.0918 65.2662C38.9169 65.4338 38.0776 64.9311 37.7419 64.0095Z" fill="#77FF77"/>
<path d="M98.1667 56.5529C97.915 55.7151 97.915 54.5422 98.1667 53.9557C98.5024 53.3692 99.5934 52.9503 100.601 53.1179C101.943 53.2855 102.447 53.9557 102.447 55.4638C102.447 57.0556 101.943 57.6421 100.517 57.8097C99.3417 57.8934 98.5024 57.3908 98.1667 56.5529Z" fill="#77FF77"/>
<path d="M90.6135 56.5529C90.3617 55.7151 90.3617 54.5422 90.6135 53.9557C90.9492 53.3692 92.0402 52.9503 93.0473 53.1179C94.3901 53.2855 94.8936 53.9557 94.8936 55.4638C94.8936 57.0556 94.3901 57.6421 92.9634 57.8097C91.7884 57.8934 90.9492 57.3908 90.6135 56.5529Z" fill="#77FF77"/>
<path d="M83.0607 56.5529C82.8089 55.7151 82.8089 54.5422 83.0607 53.9557C83.3963 53.3692 84.4874 52.9503 85.4944 53.1179C86.8372 53.2855 87.3408 53.9557 87.3408 55.4638C87.3408 57.0556 86.8372 57.6421 85.4944 57.8097C84.2356 57.8934 83.3963 57.3908 83.0607 56.5529Z" fill="#77FF77"/>
<path d="M52.8481 56.5529C52.5964 55.7151 52.5964 54.5422 52.8481 53.9557C53.1838 53.3692 54.2748 52.9503 55.2819 53.1179C56.6247 53.2855 57.1282 53.9557 57.1282 55.4638C57.1282 57.0556 56.6247 57.6421 55.2819 57.8097C54.0231 57.8934 53.1838 57.3908 52.8481 56.5529Z" fill="#77FF77"/>
<path d="M45.295 56.5529C45.0433 55.7151 45.0433 54.5422 45.295 53.9557C45.6307 53.3692 46.7217 52.9503 47.7288 53.1179C49.0716 53.2855 49.5751 53.9557 49.5751 55.4638C49.5751 57.0556 49.0716 57.6421 47.7288 57.8097C46.47 57.8934 45.6307 57.3908 45.295 56.5529Z" fill="#77FF77"/>
<path d="M37.7419 56.5529C37.4902 55.7151 37.4902 54.5422 37.7419 53.9557C38.0776 53.3692 39.1686 52.9503 40.1757 53.1179C41.5185 53.2855 42.022 53.9557 42.022 55.4638C42.022 57.0556 41.5185 57.6421 40.0918 57.8097C38.9169 57.8934 38.0776 57.3908 37.7419 56.5529Z" fill="#77FF77"/>
<path d="M90.6135 49.0126C90.3617 48.1748 90.3617 47.0019 90.6135 46.4154C90.9492 45.8289 92.0402 45.41 93.0473 45.5776C94.3901 45.7451 94.8936 46.4154 94.8936 47.9235C94.8936 49.5153 94.3901 50.1018 92.9634 50.2694C91.7884 50.3531 90.9492 49.8504 90.6135 49.0126Z" fill="#77FF77"/>
<path d="M83.0607 49.0126C82.8089 48.1748 82.8089 47.0019 83.0607 46.4154C83.3963 45.8289 84.4874 45.41 85.4944 45.5776C86.8372 45.7451 87.3408 46.4154 87.3408 47.9235C87.3408 49.5153 86.8372 50.1018 85.4944 50.2694C84.2356 50.3531 83.3963 49.8504 83.0607 49.0126Z" fill="#77FF77"/>
<path d="M75.5074 49.0126C75.2557 48.1748 75.2557 47.0019 75.5074 46.4154C75.8431 45.8289 76.9341 45.41 77.9412 45.5776C79.284 45.7451 79.7875 46.4154 79.7875 47.9235C79.7875 49.5153 79.284 50.1018 77.9412 50.2694C76.6824 50.3531 75.8431 49.8504 75.5074 49.0126Z" fill="#77FF77"/>
<path d="M67.9545 49.0126C67.7027 48.1748 67.7027 47.0019 67.9545 46.4154C68.2901 45.8289 69.3812 45.41 70.3882 45.5776C71.731 45.7451 72.2346 46.4154 72.2346 47.9235C72.2346 49.5153 71.731 50.1018 70.3882 50.2694C69.1294 50.3531 68.2901 49.8504 67.9545 49.0126Z" fill="#77FF77"/>
<path d="M60.401 49.0126C60.1492 48.1748 60.1492 47.0019 60.401 46.4154C60.7367 45.8289 61.8277 45.41 62.8348 45.5776C64.1775 45.7451 64.6811 46.4154 64.6811 47.9235C64.6811 49.5153 64.1775 50.1018 62.8348 50.2694C61.5759 50.3531 60.7367 49.8504 60.401 49.0126Z" fill="#77FF77"/>
<path d="M52.8481 49.0126C52.5964 48.1748 52.5964 47.0019 52.8481 46.4154C53.1838 45.8289 54.2748 45.41 55.2819 45.5776C56.6247 45.7451 57.1282 46.4154 57.1282 47.9235C57.1282 49.5153 56.6247 50.1018 55.2819 50.2694C54.0231 50.3531 53.1838 49.8504 52.8481 49.0126Z" fill="#77FF77"/>
<path d="M45.295 49.0126C45.0433 48.1748 45.0433 47.0019 45.295 46.4154C45.6307 45.8289 46.7217 45.41 47.7288 45.5776C49.0716 45.7451 49.5751 46.4154 49.5751 47.9235C49.5751 49.5153 49.0716 50.1018 47.7288 50.2694C46.47 50.3531 45.6307 49.8504 45.295 49.0126Z" fill="#77FF77"/>
<path d="M60.401 41.4723C60.1492 40.6345 60.1492 39.4615 60.401 38.875C60.7367 38.2886 61.8277 37.8697 62.8348 38.0372C64.1775 38.2048 64.6811 38.875 64.6811 40.3831C64.6811 41.975 64.1775 42.5614 62.8348 42.729C61.5759 42.8128 60.7367 42.3101 60.401 41.4723Z" fill="#77FF77"/>
<path d="M67.9545 41.4723C67.7027 40.6345 67.7027 39.4615 67.9545 38.875C68.2901 38.2886 69.3812 37.8697 70.3882 38.0372C71.731 38.2048 72.2346 38.875 72.2346 40.3831C72.2346 41.975 71.731 42.5614 70.3882 42.729C69.1294 42.8128 68.2901 42.3101 67.9545 41.4723Z" fill="#77FF77"/>
<path d="M75.5074 41.4723C75.2557 40.6345 75.2557 39.4615 75.5074 38.875C75.8431 38.2886 76.9341 37.8697 77.9412 38.0372C79.284 38.2048 79.7875 38.875 79.7875 40.3831C79.7875 41.975 79.284 42.5614 77.9412 42.729C76.6824 42.8128 75.8431 42.3101 75.5074 41.4723Z" fill="#77FF77"/>
<path d="M30.1888 64.0095C29.9371 63.2555 29.9371 62.0825 30.1888 61.4961C30.5245 60.9096 31.6155 60.4907 32.6226 60.6582C33.9654 60.8258 34.4689 61.4961 34.4689 63.0041C34.4689 64.596 33.9654 65.1824 32.6226 65.2662C31.3638 65.4338 30.5245 64.9311 30.1888 64.0095Z" fill="#77FF77"/>
<path d="M105.72 64.0095C105.468 63.2555 105.468 62.0825 105.72 61.4961C106.056 60.9096 107.147 60.4907 108.154 60.6582C109.497 60.8258 110 61.4961 110 63.0041C110 64.596 109.497 65.1824 108.07 65.2662C106.895 65.4338 106.056 64.9311 105.72 64.0095Z" fill="#77FF77"/>
<path d="M30.1888 71.5499C29.9371 70.7959 29.9371 69.623 30.1888 69.0365C30.5245 68.45 31.6155 68.0311 32.6226 68.1987C33.9654 68.3662 34.4689 69.0365 34.4689 70.5446C34.4689 72.1364 33.9654 72.7229 32.6226 72.8067C31.3638 72.9742 30.5245 72.4715 30.1888 71.5499Z" fill="#77FF77"/>
<path d="M105.72 71.5499C105.468 70.7959 105.468 69.623 105.72 69.0365C106.056 68.45 107.147 68.0311 108.154 68.1987C109.497 68.3662 110 69.0365 110 70.5446C110 72.1364 109.497 72.7229 108.07 72.8067C106.895 72.9742 106.056 72.4715 105.72 71.5499Z" fill="#77FF77"/>
<path d="M30.1888 79.0903C29.9371 78.3362 29.9371 77.1633 30.1888 76.5768C30.5245 75.9904 31.6155 75.5715 32.6226 75.739C33.9654 75.9066 34.4689 76.5768 34.4689 78.0849C34.4689 79.6768 33.9654 80.2632 32.6226 80.347C31.3638 80.5146 30.5245 80.0119 30.1888 79.0903Z" fill="#77FF77"/>
<path d="M105.72 79.0903C105.468 78.3362 105.468 77.1633 105.72 76.5768C106.056 75.9904 107.147 75.5715 108.154 75.739C109.497 75.9066 110 76.5768 110 78.0849C110 79.6768 109.497 80.2632 108.07 80.347C106.895 80.5146 106.056 80.0119 105.72 79.0903Z" fill="#77FF77"/>
<path d="M60.401 101.711C60.1492 100.957 60.1492 99.7844 60.401 99.1979C60.7367 98.6115 61.8277 98.1925 62.8348 98.3601C64.1775 98.5277 64.6811 99.1979 64.6811 100.706C64.6811 102.298 64.1775 102.884 62.8348 102.968C61.5759 103.136 60.7367 102.633 60.401 101.711Z" fill="#77FF77"/>
<path d="M67.9545 101.711C67.7027 100.957 67.7027 99.7844 67.9545 99.1979C68.2901 98.6115 69.3812 98.1925 70.3882 98.3601C71.731 98.5277 72.2346 99.1979 72.2346 100.706C72.2346 102.298 71.731 102.884 70.3882 102.968C69.1294 103.136 68.2901 102.633 67.9545 101.711Z" fill="#77FF77"/>
<path d="M75.5074 101.711C75.2557 100.957 75.2557 99.7844 75.5074 99.1979C75.8431 98.6115 76.9341 98.1925 77.9412 98.3601C79.284 98.5277 79.7875 99.1979 79.7875 100.706C79.7875 102.298 79.284 102.884 77.9412 102.968C76.6824 103.136 75.8431 102.633 75.5074 101.711Z" fill="#77FF77"/>
</svg>
