<svg width="140" height="140" viewBox="0 0 140 140" fill="none" xmlns="http://www.w3.org/2000/svg">
<rect width="140" height="140" rx="25" fill="#002000"/>
<path d="M95.7669 99.2137C95.4522 98.2711 95.4522 96.8049 95.7669 96.0718C96.1865 95.3387 97.5503 94.8151 98.8091 95.0246C100.488 95.234 101.117 96.0718 101.117 97.9569C101.117 99.9467 100.488 100.68 98.7042 100.785C97.2356 100.994 96.1865 100.366 95.7669 99.2137Z" fill="#77FF77"/>
<path d="M86.3258 99.2137C86.011 98.2711 86.011 96.8049 86.3258 96.0718C86.7454 95.3387 88.1091 94.8151 89.368 95.0246C91.0465 95.234 91.6759 96.0718 91.6759 97.9569C91.6759 99.9467 91.0465 100.68 89.368 100.785C87.7944 100.994 86.7454 100.366 86.3258 99.2137Z" fill="#77FF77"/>
<path d="M76.8842 99.2137C76.5695 98.2711 76.5695 96.8049 76.8842 96.0718C77.3038 95.3387 78.6676 94.8151 79.9265 95.0246C81.6049 95.234 82.2344 96.0718 82.2344 97.9569C82.2344 99.9467 81.6049 100.68 79.9265 100.785C78.3529 100.994 77.3038 100.366 76.8842 99.2137Z" fill="#77FF77"/>
<path d="M67.4431 99.2137C67.1284 98.2711 67.1284 96.8049 67.4431 96.0718C67.8627 95.3387 69.2264 94.8151 70.4853 95.0246C72.1638 95.234 72.7932 96.0718 72.7932 97.9569C72.7932 99.9467 72.1638 100.68 70.4853 100.785C68.9117 100.994 67.8627 100.366 67.4431 99.2137Z" fill="#77FF77"/>
<path d="M58.0013 99.2137C57.6866 98.2711 57.6866 96.8049 58.0013 96.0718C58.4209 95.3387 59.7847 94.8151 61.0435 95.0246C62.722 95.234 63.3514 96.0718 63.3514 97.9569C63.3514 99.9467 62.722 100.68 61.0435 100.785C59.47 100.994 58.4209 100.366 58.0013 99.2137Z" fill="#77FF77"/>
<path d="M48.5601 99.2137C48.2454 98.2711 48.2454 96.8049 48.5601 96.0718C48.9797 95.3387 50.3435 94.8151 51.6024 95.0246C53.2808 95.234 53.9103 96.0718 53.9103 97.9569C53.9103 99.9467 53.2808 100.68 51.6024 100.785C50.0288 100.994 48.9797 100.366 48.5601 99.2137Z" fill="#77FF77"/>
<path d="M39.1187 99.2137C38.804 98.2711 38.804 96.8049 39.1187 96.0718C39.5383 95.3387 40.9021 94.8151 42.161 95.0246C43.8394 95.234 44.4688 96.0718 44.4688 97.9569C44.4688 99.9467 43.8394 100.68 42.161 100.785C40.5874 100.994 39.5383 100.366 39.1187 99.2137Z" fill="#77FF77"/>
<path d="M105.208 89.7882C104.894 88.8457 104.894 87.3795 105.208 86.6464C105.628 85.9133 106.992 85.3897 108.251 85.5992C109.929 85.8086 110.559 86.6464 110.559 88.5315C110.559 90.5213 109.929 91.2544 108.146 91.3591C106.677 91.5686 105.628 90.9402 105.208 89.7882Z" fill="#77FF77"/>
<path d="M95.7669 89.7882C95.4522 88.8457 95.4522 87.3795 95.7669 86.6464C96.1865 85.9133 97.5503 85.3897 98.8091 85.5992C100.488 85.8086 101.117 86.6464 101.117 88.5315C101.117 90.5213 100.488 91.2544 98.7042 91.3591C97.2356 91.5686 96.1865 90.9402 95.7669 89.7882Z" fill="#77FF77"/>
<path d="M86.3258 89.7882C86.011 88.8457 86.011 87.3795 86.3258 86.6464C86.7454 85.9133 88.1091 85.3897 89.368 85.5992C91.0465 85.8086 91.6759 86.6464 91.6759 88.5315C91.6759 90.5213 91.0465 91.2544 89.368 91.3591C87.7944 91.5686 86.7454 90.9402 86.3258 89.7882Z" fill="#77FF77"/>
<path d="M48.5601 89.7882C48.2454 88.8457 48.2454 87.3795 48.5601 86.6464C48.9797 85.9133 50.3435 85.3897 51.6024 85.5992C53.2808 85.8086 53.9103 86.6464 53.9103 88.5315C53.9103 90.5213 53.2808 91.2544 51.6024 91.3591C50.0288 91.5686 48.9797 90.9402 48.5601 89.7882Z" fill="#77FF77"/>
<path d="M39.1187 89.7882C38.804 88.8457 38.804 87.3795 39.1187 86.6464C39.5383 85.9133 40.9021 85.3897 42.161 85.5992C43.8394 85.8086 44.4688 86.6464 44.4688 88.5315C44.4688 90.5213 43.8394 91.2544 42.161 91.3591C40.5874 91.5686 39.5383 90.9402 39.1187 89.7882Z" fill="#77FF77"/>
<path d="M29.6774 89.7882C29.3627 88.8457 29.3627 87.3795 29.6774 86.6464C30.0971 85.9133 31.4608 85.3897 32.7197 85.5992C34.3981 85.8086 35.0276 86.6464 35.0276 88.5315C35.0276 90.5213 34.3981 91.2544 32.6148 91.3591C31.1461 91.5686 30.0971 90.9402 29.6774 89.7882Z" fill="#77FF77"/>
<path d="M105.208 80.3628C104.894 79.4203 104.894 77.9541 105.208 77.221C105.628 76.4879 106.992 75.9643 108.251 76.1737C109.929 76.3832 110.559 77.221 110.559 79.1061C110.559 81.0959 109.929 81.829 108.146 81.9337C106.677 82.1432 105.628 81.5148 105.208 80.3628Z" fill="#77FF77"/>
<path d="M95.7669 80.3628C95.4522 79.4203 95.4522 77.9541 95.7669 77.221C96.1865 76.4879 97.5503 75.9643 98.8091 76.1737C100.488 76.3832 101.117 77.221 101.117 79.1061C101.117 81.0959 100.488 81.829 98.7042 81.9337C97.2356 82.1432 96.1865 81.5148 95.7669 80.3628Z" fill="#77FF77"/>
<path d="M67.4431 80.3628C67.1284 79.4203 67.1284 77.9541 67.4431 77.221C67.8627 76.4879 69.2264 75.9643 70.4853 76.1737C72.1638 76.3832 72.7932 77.221 72.7932 79.1061C72.7932 81.0959 72.1638 81.829 70.4853 81.9337C68.9117 82.1432 67.8627 81.5148 67.4431 80.3628Z" fill="#77FF77"/>
<path d="M39.1187 80.3628C38.804 79.4203 38.804 77.9541 39.1187 77.221C39.5383 76.4879 40.9021 75.9643 42.161 76.1737C43.8394 76.3832 44.4688 77.221 44.4688 79.1061C44.4688 81.0959 43.8394 81.829 42.161 81.9337C40.5874 82.1432 39.5383 81.5148 39.1187 80.3628Z" fill="#77FF77"/>
<path d="M29.6774 80.3628C29.3627 79.4203 29.3627 77.9541 29.6774 77.221C30.0971 76.4879 31.4608 75.9643 32.7197 76.1737C34.3981 76.3832 35.0276 77.221 35.0276 79.1061C35.0276 81.0959 34.3981 81.829 32.6148 81.9337C31.1461 82.1432 30.0971 81.5148 29.6774 80.3628Z" fill="#77FF77"/>
<path d="M105.208 70.9374C104.894 69.9949 104.894 68.5287 105.208 67.7956C105.628 67.0625 106.992 66.5389 108.251 66.7484C109.929 66.9578 110.559 67.7956 110.559 69.6807C110.559 71.6705 109.929 72.4036 108.146 72.5083C106.677 72.7178 105.628 72.0894 105.208 70.9374Z" fill="#77FF77"/>
<path d="M95.7669 70.9374C95.4522 69.9949 95.4522 68.5287 95.7669 67.7956C96.1865 67.0625 97.5503 66.5389 98.8091 66.7484C100.488 66.9578 101.117 67.7956 101.117 69.6807C101.117 71.6705 100.488 72.4036 98.7042 72.5083C97.2356 72.7178 96.1865 72.0894 95.7669 70.9374Z" fill="#77FF77"/>
<path d="M76.8842 70.9374C76.5695 69.9949 76.5695 68.5287 76.8842 67.7956C77.3038 67.0625 78.6676 66.5389 79.9265 66.7484C81.6049 66.9578 82.2344 67.7956 82.2344 69.6807C82.2344 71.6705 81.6049 72.4036 79.9265 72.5083C78.3529 72.7178 77.3038 72.0894 76.8842 70.9374Z" fill="#77FF77"/>
<path d="M67.4431 70.9374C67.1284 69.9949 67.1284 68.5287 67.4431 67.7956C67.8627 67.0625 69.2264 66.5389 70.4853 66.7484C72.1638 66.9578 72.7932 67.7956 72.7932 69.6807C72.7932 71.6705 72.1638 72.4036 70.4853 72.5083C68.9117 72.7178 67.8627 72.0894 67.4431 70.9374Z" fill="#77FF77"/>
<path d="M58.0013 70.9374C57.6866 69.9949 57.6866 68.5287 58.0013 67.7956C58.4209 67.0625 59.7847 66.5389 61.0435 66.7484C62.722 66.9578 63.3514 67.7956 63.3514 69.6807C63.3514 71.6705 62.722 72.4036 61.0435 72.5083C59.47 72.7178 58.4209 72.0894 58.0013 70.9374Z" fill="#77FF77"/>
<path d="M39.1187 70.9374C38.804 69.9949 38.804 68.5287 39.1187 67.7956C39.5383 67.0625 40.9021 66.5389 42.161 66.7484C43.8394 66.9578 44.4688 67.7956 44.4688 69.6807C44.4688 71.6705 43.8394 72.4036 42.161 72.5083C40.5874 72.7178 39.5383 72.0894 39.1187 70.9374Z" fill="#77FF77"/>
<path d="M29.6774 70.9374C29.3627 69.9949 29.3627 68.5287 29.6774 67.7956C30.0971 67.0625 31.4608 66.5389 32.7197 66.7484C34.3981 66.9578 35.0276 67.7956 35.0276 69.6807C35.0276 71.6705 34.3981 72.4036 32.6148 72.5083C31.1461 72.7178 30.0971 72.0894 29.6774 70.9374Z" fill="#77FF77"/>
<path d="M105.208 61.5119C104.894 60.5693 104.894 59.1031 105.208 58.3701C105.628 57.637 106.992 57.1133 108.251 57.3228C109.929 57.5322 110.559 58.3701 110.559 60.2551C110.559 62.245 109.929 62.9781 108.146 63.0828C106.677 63.2922 105.628 62.6639 105.208 61.5119Z" fill="#77FF77"/>
<path d="M95.7669 61.5119C95.4522 60.5693 95.4522 59.1031 95.7669 58.3701C96.1865 57.637 97.5503 57.1133 98.8091 57.3228C100.488 57.5322 101.117 58.3701 101.117 60.2551C101.117 62.245 100.488 62.9781 98.7042 63.0828C97.2356 63.2922 96.1865 62.6639 95.7669 61.5119Z" fill="#77FF77"/>
<path d="M67.4431 61.5119C67.1284 60.5693 67.1284 59.1031 67.4431 58.3701C67.8627 57.637 69.2264 57.1133 70.4853 57.3228C72.1638 57.5322 72.7932 58.3701 72.7932 60.2551C72.7932 62.245 72.1638 62.9781 70.4853 63.0828C68.9117 63.2922 67.8627 62.6639 67.4431 61.5119Z" fill="#77FF77"/>
<path d="M39.1187 61.5119C38.804 60.5693 38.804 59.1031 39.1187 58.3701C39.5383 57.637 40.9021 57.1133 42.161 57.3228C43.8394 57.5322 44.4688 58.3701 44.4688 60.2551C44.4688 62.245 43.8394 62.9781 42.161 63.0828C40.5874 63.2922 39.5383 62.6639 39.1187 61.5119Z" fill="#77FF77"/>
<path d="M29.6774 61.5119C29.3627 60.5693 29.3627 59.1031 29.6774 58.3701C30.0971 57.637 31.4608 57.1133 32.7197 57.3228C34.3981 57.5322 35.0276 58.3701 35.0276 60.2551C35.0276 62.245 34.3981 62.9781 32.6148 63.0828C31.1461 63.2922 30.0971 62.6639 29.6774 61.5119Z" fill="#77FF77"/>
<path d="M105.208 52.1912C104.894 51.1439 104.894 49.6777 105.208 48.9446C105.628 48.2116 106.992 47.6879 108.251 47.8974C109.929 48.1068 110.559 48.9446 110.559 50.8297C110.559 52.8195 109.929 53.5526 108.146 53.7621C106.677 53.8668 105.628 53.2385 105.208 52.1912Z" fill="#77FF77"/>
<path d="M95.7669 52.1912C95.4522 51.1439 95.4522 49.6777 95.7669 48.9446C96.1865 48.2116 97.5503 47.6879 98.8091 47.8974C100.488 48.1068 101.117 48.9446 101.117 50.8297C101.117 52.8195 100.488 53.5526 98.7042 53.7621C97.2356 53.8668 96.1865 53.2385 95.7669 52.1912Z" fill="#77FF77"/>
<path d="M86.3258 52.1912C86.011 51.1439 86.011 49.6777 86.3258 48.9446C86.7454 48.2116 88.1091 47.6879 89.368 47.8974C91.0465 48.1068 91.6759 48.9446 91.6759 50.8297C91.6759 52.8195 91.0465 53.5526 89.368 53.7621C87.7944 53.8668 86.7454 53.2385 86.3258 52.1912Z" fill="#77FF77"/>
<path d="M48.5601 52.1912C48.2454 51.1439 48.2454 49.6777 48.5601 48.9446C48.9797 48.2116 50.3435 47.6879 51.6024 47.8974C53.2808 48.1068 53.9103 48.9446 53.9103 50.8297C53.9103 52.8195 53.2808 53.5526 51.6024 53.7621C50.0288 53.8668 48.9797 53.2385 48.5601 52.1912Z" fill="#77FF77"/>
<path d="M39.1187 52.1912C38.804 51.1439 38.804 49.6777 39.1187 48.9446C39.5383 48.2116 40.9021 47.6879 42.161 47.8974C43.8394 48.1068 44.4688 48.9446 44.4688 50.8297C44.4688 52.8195 43.8394 53.5526 42.161 53.7621C40.5874 53.8668 39.5383 53.2385 39.1187 52.1912Z" fill="#77FF77"/>
<path d="M29.6774 52.1912C29.3627 51.1439 29.3627 49.6777 29.6774 48.9446C30.0971 48.2116 31.4608 47.6879 32.7197 47.8974C34.3981 48.1068 35.0276 48.9446 35.0276 50.8297C35.0276 52.8195 34.3981 53.5526 32.6148 53.7621C31.1461 53.8668 30.0971 53.2385 29.6774 52.1912Z" fill="#77FF77"/>
<path d="M95.7669 42.7658C95.4522 41.7185 95.4522 40.2523 95.7669 39.5193C96.1865 38.7862 97.5503 38.2625 98.8091 38.472C100.488 38.6814 101.117 39.5193 101.117 41.4043C101.117 43.3942 100.488 44.1273 98.7042 44.3367C97.2356 44.4414 96.1865 43.8131 95.7669 42.7658Z" fill="#77FF77"/>
<path d="M86.3258 42.7658C86.011 41.7185 86.011 40.2523 86.3258 39.5193C86.7454 38.7862 88.1091 38.2625 89.368 38.472C91.0465 38.6814 91.6759 39.5193 91.6759 41.4043C91.6759 43.3942 91.0465 44.1273 89.368 44.3367C87.7944 44.4414 86.7454 43.8131 86.3258 42.7658Z" fill="#77FF77"/>
<path d="M76.8842 42.7658C76.5695 41.7185 76.5695 40.2523 76.8842 39.5193C77.3038 38.7862 78.6676 38.2625 79.9265 38.472C81.6049 38.6814 82.2344 39.5193 82.2344 41.4043C82.2344 43.3942 81.6049 44.1273 79.9265 44.3367C78.3529 44.4414 77.3038 43.8131 76.8842 42.7658Z" fill="#77FF77"/>
<path d="M67.4431 42.7658C67.1284 41.7185 67.1284 40.2523 67.4431 39.5193C67.8627 38.7862 69.2264 38.2625 70.4853 38.472C72.1638 38.6814 72.7932 39.5193 72.7932 41.4043C72.7932 43.3942 72.1638 44.1273 70.4853 44.3367C68.9117 44.4414 67.8627 43.8131 67.4431 42.7658Z" fill="#77FF77"/>
<path d="M58.0013 42.7658C57.6866 41.7185 57.6866 40.2523 58.0013 39.5193C58.4209 38.7862 59.7847 38.2625 61.0435 38.472C62.722 38.6814 63.3514 39.5193 63.3514 41.4043C63.3514 43.3942 62.722 44.1273 61.0435 44.3367C59.47 44.4414 58.4209 43.8131 58.0013 42.7658Z" fill="#77FF77"/>
<path d="M48.5601 42.7658C48.2454 41.7185 48.2454 40.2523 48.5601 39.5193C48.9797 38.7862 50.3435 38.2625 51.6024 38.472C53.2808 38.6814 53.9103 39.5193 53.9103 41.4043C53.9103 43.3942 53.2808 44.1273 51.6024 44.3367C50.0288 44.4414 48.9797 43.8131 48.5601 42.7658Z" fill="#77FF77"/>
<path d="M39.1187 42.7658C38.804 41.7185 38.804 40.2523 39.1187 39.5193C39.5383 38.7862 40.9021 38.2625 42.161 38.472C43.8394 38.6814 44.4688 39.5193 44.4688 41.4043C44.4688 43.3942 43.8394 44.1273 42.161 44.3367C40.5874 44.4414 39.5383 43.8131 39.1187 42.7658Z" fill="#77FF77"/>
<path d="M58.0013 33.3404C57.6866 32.2931 57.6866 30.8269 58.0013 30.0938C58.4209 29.3607 59.7847 28.8371 61.0435 29.0465C62.722 29.256 63.3514 30.0938 63.3514 31.9789C63.3514 33.9687 62.722 34.7018 61.0435 34.9113C59.47 35.016 58.4209 34.3876 58.0013 33.3404Z" fill="#77FF77"/>
<path d="M67.4431 33.3404C67.1284 32.2931 67.1284 30.8269 67.4431 30.0938C67.8627 29.3607 69.2264 28.8371 70.4853 29.0465C72.1638 29.256 72.7932 30.0938 72.7932 31.9789C72.7932 33.9687 72.1638 34.7018 70.4853 34.9113C68.9117 35.016 67.8627 34.3876 67.4431 33.3404Z" fill="#77FF77"/>
<path d="M76.8842 33.3404C76.5695 32.2931 76.5695 30.8269 76.8842 30.0938C77.3038 29.3607 78.6676 28.8371 79.9265 29.0465C81.6049 29.256 82.2344 30.0938 82.2344 31.9789C82.2344 33.9687 81.6049 34.7018 79.9265 34.9113C78.3529 35.016 77.3038 34.3876 76.8842 33.3404Z" fill="#77FF77"/>
<path d="M20.236 61.5119C19.9213 60.5693 19.9213 59.1031 20.236 58.3701C20.6557 57.637 22.0194 57.1133 23.2783 57.3228C24.9567 57.5322 25.5862 58.3701 25.5862 60.2551C25.5862 62.245 24.9567 62.9781 23.2783 63.0828C21.7047 63.2922 20.6557 62.6639 20.236 61.5119Z" fill="#77FF77"/>
<path d="M114.65 61.5119C114.335 60.5693 114.335 59.1031 114.65 58.3701C115.07 57.637 116.433 57.1133 117.692 57.3228C119.371 57.5322 120 58.3701 120 60.2551C120 62.245 119.371 62.9781 117.587 63.0828C116.119 63.2922 115.07 62.6639 114.65 61.5119Z" fill="#77FF77"/>
<path d="M20.236 70.9374C19.9213 69.9949 19.9213 68.5287 20.236 67.7956C20.6557 67.0625 22.0194 66.5389 23.2783 66.7484C24.9567 66.9578 25.5862 67.7956 25.5862 69.6807C25.5862 71.6705 24.9567 72.4036 23.2783 72.5083C21.7047 72.7178 20.6557 72.0894 20.236 70.9374Z" fill="#77FF77"/>
<path d="M114.65 70.9374C114.335 69.9949 114.335 68.5287 114.65 67.7956C115.07 67.0625 116.433 66.5389 117.692 66.7484C119.371 66.9578 120 67.7956 120 69.6807C120 71.6705 119.371 72.4036 117.587 72.5083C116.119 72.7178 115.07 72.0894 114.65 70.9374Z" fill="#77FF77"/>
<path d="M20.236 80.3628C19.9213 79.4203 19.9213 77.9541 20.236 77.221C20.6557 76.4879 22.0194 75.9643 23.2783 76.1737C24.9567 76.3832 25.5862 77.221 25.5862 79.1061C25.5862 81.0959 24.9567 81.829 23.2783 81.9337C21.7047 82.1432 20.6557 81.5148 20.236 80.3628Z" fill="#77FF77"/>
<path d="M114.65 80.3628C114.335 79.4203 114.335 77.9541 114.65 77.221C115.07 76.4879 116.433 75.9643 117.692 76.1737C119.371 76.3832 120 77.221 120 79.1061C120 81.0959 119.371 81.829 117.587 81.9337C116.119 82.1432 115.07 81.5148 114.65 80.3628Z" fill="#77FF77"/>
<path d="M58.0013 108.639C57.6866 107.697 57.6866 106.23 58.0013 105.497C58.4209 104.764 59.7847 104.241 61.0435 104.45C62.722 104.66 63.3514 105.497 63.3514 107.382C63.3514 109.372 62.722 110.105 61.0435 110.21C59.47 110.42 58.4209 109.791 58.0013 108.639Z" fill="#77FF77"/>
<path d="M67.4431 108.639C67.1284 107.697 67.1284 106.23 67.4431 105.497C67.8627 104.764 69.2264 104.241 70.4853 104.45C72.1638 104.66 72.7932 105.497 72.7932 107.382C72.7932 109.372 72.1638 110.105 70.4853 110.21C68.9117 110.42 67.8627 109.791 67.4431 108.639Z" fill="#77FF77"/>
<path d="M76.8842 108.639C76.5695 107.697 76.5695 106.23 76.8842 105.497C77.3038 104.764 78.6676 104.241 79.9265 104.45C81.6049 104.66 82.2344 105.497 82.2344 107.382C82.2344 109.372 81.6049 110.105 79.9265 110.21C78.3529 110.42 77.3038 109.791 76.8842 108.639Z" fill="#77FF77"/>
</svg>
