<svg width="256" height="256" viewBox="0 0 256 256" fill="none" xmlns="http://www.w3.org/2000/svg">
<rect width="256" height="256" fill="#1F1F1F"/>
<ellipse cx="113.688" cy="69.2459" rx="5.2459" ry="5.2459" fill="#77FF77"/>
<ellipse cx="128.377" cy="69.2459" rx="5.2459" ry="5.2459" fill="#77FF77"/>
<ellipse cx="143.066" cy="69.2459" rx="5.2459" ry="5.2459" fill="#77FF77"/>
<ellipse cx="113.688" cy="69.2459" rx="5.2459" ry="5.2459" fill="#77FF77"/>
<ellipse cx="113.688" cy="83.9344" rx="5.2459" ry="5.2459" fill="#77FF77"/>
<ellipse cx="128.377" cy="83.9344" rx="5.2459" ry="5.2459" fill="#77FF77"/>
<ellipse cx="143.066" cy="83.9344" rx="5.2459" ry="5.2459" fill="#77FF77"/>
<ellipse cx="157.754" cy="83.9344" rx="5.2459" ry="5.2459" fill="#77FF77"/>
<ellipse cx="172.443" cy="83.9344" rx="5.2459" ry="5.2459" fill="#77FF77"/>
<ellipse cx="98.9999" cy="83.9344" rx="5.2459" ry="5.2459" fill="#77FF77"/>
<ellipse cx="5.2459" cy="5.2459" rx="5.2459" ry="5.2459" transform="matrix(1 0 0 -1 123.131 192)" fill="#77FF77"/>
<ellipse cx="5.2459" cy="5.2459" rx="5.2459" ry="5.2459" transform="matrix(1 0 0 -1 137.82 192)" fill="#77FF77"/>
<ellipse cx="5.2459" cy="5.2459" rx="5.2459" ry="5.2459" transform="matrix(1 0 0 -1 108.443 192)" fill="#77FF77"/>
<ellipse cx="5.2459" cy="5.2459" rx="5.2459" ry="5.2459" transform="matrix(1 0 0 -1 108.443 177.311)" fill="#77FF77"/>
<ellipse cx="5.2459" cy="5.2459" rx="5.2459" ry="5.2459" transform="matrix(1 0 0 -1 123.131 177.311)" fill="#77FF77"/>
<ellipse cx="5.2459" cy="5.2459" rx="5.2459" ry="5.2459" transform="matrix(1 0 0 -1 137.82 177.311)" fill="#77FF77"/>
<ellipse cx="5.2459" cy="5.2459" rx="5.2459" ry="5.2459" transform="matrix(1 0 0 -1 152.508 177.311)" fill="#77FF77"/>
<ellipse cx="5.2459" cy="5.2459" rx="5.2459" ry="5.2459" transform="matrix(1 0 0 -1 93.754 177.311)" fill="#77FF77"/>
<ellipse cx="84.3115" cy="83.9344" rx="5.2459" ry="5.2459" fill="#77FF77"/>
<ellipse cx="84.3115" cy="98.6229" rx="5.2459" ry="5.2459" fill="#77FF77"/>
<ellipse cx="98.9999" cy="98.6229" rx="5.2459" ry="5.2459" fill="#77FF77"/>
<ellipse cx="98.9999" cy="157.377" rx="5.2459" ry="5.2459" fill="#77FF77"/>
<ellipse cx="157.754" cy="157.377" rx="5.2459" ry="5.2459" fill="#77FF77"/>
<ellipse cx="84.3115" cy="113.312" rx="5.2459" ry="5.2459" fill="#77FF77"/>
<ellipse cx="84.3115" cy="128" rx="5.2459" ry="5.2459" fill="#77FF77"/>
<ellipse cx="84.3115" cy="142.689" rx="5.2459" ry="5.2459" fill="#77FF77"/>
<ellipse cx="84.3115" cy="172.066" rx="5.2459" ry="5.2459" fill="#77FF77"/>
<ellipse cx="69.6229" cy="157.377" rx="5.2459" ry="5.2459" fill="#77FF77"/>
<ellipse cx="69.6229" cy="142.689" rx="5.2459" ry="5.2459" fill="#77FF77"/>
<ellipse cx="69.6229" cy="128" rx="5.2459" ry="5.2459" fill="#77FF77"/>
<ellipse cx="69.6229" cy="113.312" rx="5.2459" ry="5.2459" fill="#77FF77"/>
<ellipse cx="54.9345" cy="113.312" rx="5.2459" ry="5.2459" fill="#77FF77"/>
<ellipse cx="54.9345" cy="128" rx="5.2459" ry="5.2459" fill="#77FF77"/>
<ellipse cx="40.2459" cy="128" rx="5.2459" ry="5.2459" fill="#77FF77"/>
<ellipse cx="54.9345" cy="142.689" rx="5.2459" ry="5.2459" fill="#77FF77"/>
<ellipse cx="69.6229" cy="98.6229" rx="5.2459" ry="5.2459" fill="#77FF77"/>
<ellipse cx="84.3115" cy="157.377" rx="5.2459" ry="5.2459" fill="#77FF77"/>
<ellipse cx="5.2459" cy="5.2459" rx="5.2459" ry="5.2459" transform="matrix(-1 0 0 1 177.688 93.377)" fill="#77FF77"/>
<ellipse cx="5.2459" cy="5.2459" rx="5.2459" ry="5.2459" transform="matrix(-1 0 0 1 163 93.377)" fill="#77FF77"/>
<ellipse cx="5.2459" cy="5.2459" rx="5.2459" ry="5.2459" transform="matrix(-1 0 0 1 177.688 108.066)" fill="#77FF77"/>
<ellipse cx="5.2459" cy="5.2459" rx="5.2459" ry="5.2459" transform="matrix(-1 0 0 1 177.688 122.754)" fill="#77FF77"/>
<ellipse cx="5.2459" cy="5.2459" rx="5.2459" ry="5.2459" transform="matrix(-1 0 0 1 177.688 137.443)" fill="#77FF77"/>
<ellipse cx="5.2459" cy="5.2459" rx="5.2459" ry="5.2459" transform="matrix(-1 0 0 1 177.688 166.82)" fill="#77FF77"/>
<ellipse cx="5.2459" cy="5.2459" rx="5.2459" ry="5.2459" transform="matrix(-1 0 0 1 192.377 152.131)" fill="#77FF77"/>
<ellipse cx="5.2459" cy="5.2459" rx="5.2459" ry="5.2459" transform="matrix(-1 0 0 1 192.377 137.443)" fill="#77FF77"/>
<ellipse cx="5.2459" cy="5.2459" rx="5.2459" ry="5.2459" transform="matrix(-1 0 0 1 192.377 122.754)" fill="#77FF77"/>
<ellipse cx="5.2459" cy="5.2459" rx="5.2459" ry="5.2459" transform="matrix(-1 0 0 1 192.377 108.066)" fill="#77FF77"/>
<ellipse cx="5.2459" cy="5.2459" rx="5.2459" ry="5.2459" transform="matrix(-1 0 0 1 207.066 108.066)" fill="#77FF77"/>
<ellipse cx="5.2459" cy="5.2459" rx="5.2459" ry="5.2459" transform="matrix(-1 0 0 1 207.066 122.754)" fill="#77FF77"/>
<ellipse cx="5.2459" cy="5.2459" rx="5.2459" ry="5.2459" transform="matrix(-1 0 0 1 221.754 122.754)" fill="#77FF77"/>
<ellipse cx="5.2459" cy="5.2459" rx="5.2459" ry="5.2459" transform="matrix(-1 0 0 1 207.066 137.443)" fill="#77FF77"/>
<ellipse cx="5.2459" cy="5.2459" rx="5.2459" ry="5.2459" transform="matrix(-1 0 0 1 192.377 93.377)" fill="#77FF77"/>
<ellipse cx="5.2459" cy="5.2459" rx="5.2459" ry="5.2459" transform="matrix(-1 0 0 1 177.688 152.131)" fill="#77FF77"/>
<ellipse cx="5.2459" cy="5.2459" rx="5.2459" ry="5.2459" transform="matrix(1 0 0 -1 123.131 133.246)" fill="#77FF77"/>
<ellipse cx="5.2459" cy="5.2459" rx="5.2459" ry="5.2459" transform="matrix(1 0 0 -1 123.131 118.557)" fill="#77FF77"/>
<ellipse cx="5.2459" cy="5.2459" rx="5.2459" ry="5.2459" transform="matrix(1 0 0 -1 108.443 133.246)" fill="#77FF77"/>
<ellipse cx="5.2459" cy="5.2459" rx="5.2459" ry="5.2459" transform="matrix(1 0 0 -1 137.82 133.246)" fill="#77FF77"/>
<ellipse cx="5.2459" cy="5.2459" rx="5.2459" ry="5.2459" transform="matrix(1 0 0 -1 123.131 147.934)" fill="#77FF77"/>
</svg>
